<!--?xml version="1.0" standalone="no"?-->

<svg version="1.0" xmlns="http://www.w3.org/2000/svg" width="300.000000pt" height="222.000000pt" viewBox="0 0 300.000000 222.000000" preserveAspectRatio="xMidYMid meet">
<g transform="translate(0.000000,222.000000) scale(0.100000,-0.100000)" fill="#292929" stroke="none">
<path d="M580 2204 c-58 -21 -121 -65 -158 -110 -29 -35 -30 -36 -41 -15 -14
26 -35 27 -59 3 -18 -18 -20 -18 -52 5 -46 31 -90 30 -131 -4 -60 -51 -94
-173 -110 -397 -9 -132 -9 -160 2 -167 8 -5 16 -9 19 -9 3 0 27 67 53 148 49
148 103 257 151 301 26 24 26 24 26 3 0 -22 27 -42 46 -35 8 2 13 -23 16 -74
10 -171 119 -298 285 -333 l51 -11 -50 -112 c-27 -62 -63 -146 -80 -187 -16
-41 -36 -81 -43 -89 -12 -12 -37 -6 -172 41 l-158 55 3 50 c3 45 1 53 -24 72
-33 26 -50 26 -90 2 -63 -38 -83 -133 -38 -178 20 -20 31 -24 57 -19 17 3 41
15 52 26 l22 20 114 -40 c63 -23 135 -48 162 -57 26 -9 47 -23 47 -30 0 -7
-12 -38 -26 -70 -14 -32 -53 -121 -85 -198 -33 -77 -73 -169 -89 -205 -15 -36
-39 -90 -51 -120 -13 -30 -29 -66 -36 -80 l-13 -25 165 -3 165 -2 0 -96 0 -96
-34 6 c-46 9 -126 -10 -153 -36 -31 -29 -29 -64 5 -98 52 -52 184 -49 238 5
31 31 30 60 -1 91 -24 24 -26 30 -23 122 l3 97 145 0 145 0 3 -99 c2 -89 1
-101 -18 -118 -29 -27 -23 -75 11 -100 65 -49 187 -42 234 14 27 32 26 57 -2
90 -19 21 -100 41 -150 36 l-38 -3 0 90 0 90 163 3 c89 1 162 5 162 9 0 4 -13
36 -29 72 -67 150 -111 251 -111 256 0 2 -36 86 -80 186 -44 100 -80 185 -80
189 0 3 28 15 63 27 34 12 107 37 161 56 l100 34 34 -24 c40 -27 69 -29 99 -8
78 55 -15 229 -107 200 -28 -9 -52 -60 -48 -102 3 -35 2 -35 -62 -60 -36 -13
-107 -38 -157 -56 -108 -36 -104 -39 -146 73 -14 36 -48 117 -76 180 -28 62
-51 115 -51 116 0 1 23 7 50 13 168 36 281 175 284 348 0 64 2 70 18 62 19
-10 48 12 48 39 1 23 51 -36 89 -103 31 -54 85 -195 111 -290 11 -37 22 -60
31 -60 11 0 14 27 13 145 -2 212 -48 383 -115 431 -37 26 -85 24 -124 -6 -32
-24 -33 -24 -50 -5 -25 27 -53 25 -61 -4 -5 -22 -8 -21 -56 30 -71 76 -140
107 -242 111 -57 2 -94 -2 -126 -13z m209 -33 c77 -24 136 -72 181 -147 33
-56 35 -62 35 -154 0 -110 -19 -161 -87 -230 -156 -162 -418 -112 -519 98 -17
36 -22 65 -23 127 0 96 21 150 85 220 88 95 202 125 328 86z m-526 -119 c16
-17 15 -20 -30 -69 -52 -55 -109 -159 -148 -268 l-25 -70 5 90 c11 163 54 305
102 335 23 13 73 4 96 -18z m955 12 c53 -37 102 -205 102 -348 l-1 -61 -28 80
c-40 113 -85 192 -143 252 l-51 52 34 20 c41 25 57 26 87 5z m-471 -722 c18
-41 33 -76 33 -78 0 -3 16 -39 34 -82 31 -69 97 -222 193 -447 19 -44 42 -98
53 -120 31 -67 90 -210 90 -218 0 -4 -207 -7 -461 -7 -365 0 -460 3 -456 13 3
6 22 50 42 97 20 47 42 99 50 115 20 42 150 343 195 450 21 50 64 149 95 220
31 72 61 141 67 155 l10 25 11 -25 c6 -14 26 -58 44 -98z m-599 -65 c3 -32 -2
-43 -31 -72 -39 -39 -49 -42 -71 -19 -41 40 10 138 68 132 28 -3 31 -7 34 -41z
m1172 23 c35 -35 40 -104 9 -123 -23 -15 -65 14 -86 58 -32 67 26 116 77 65z
m-793 -1176 c31 -19 27 -54 -7 -71 -14 -7 -48 -13 -77 -13 -84 0 -125 28 -103
70 21 40 135 48 187 14z m507 -4 c19 -17 23 -27 16 -40 -32 -61 -220 -46 -220
17 0 7 15 22 33 34 45 28 136 23 171 -11z" id="node1" class="node"></path>
<path d="M2263 2149 c-110 -21 -204 -95 -251 -197 -22 -48 -26 -71 -26 -147
-1 -78 3 -98 28 -152 49 -106 151 -184 260 -199 l46 -7 0 -174 0 -174 -22 7
c-13 3 -66 22 -118 41 -52 19 -116 42 -142 51 l-48 16 2 49 c0 37 -4 54 -20
69 -41 42 -112 16 -148 -54 -47 -90 33 -177 109 -118 14 11 33 20 44 19 10 0
90 -26 178 -57 l160 -57 3 -122 3 -122 -143 -3 -143 -3 0 -225 0 -225 58 -3
57 -3 0 -97 0 -97 -74 0 c-95 0 -131 -22 -131 -80 0 -51 32 -75 112 -82 72 -7
125 9 153 44 26 33 25 45 -5 82 -24 28 -26 35 -23 128 l3 98 57 3 57 3 10 50
c6 27 11 57 11 65 0 30 18 3 24 -37 11 -71 20 -79 81 -79 l55 0 0 -104 c0 -83
-3 -106 -16 -117 -46 -38 -29 -97 36 -123 82 -33 187 -10 216 47 15 28 15 32
-4 56 -28 39 -60 51 -134 51 l-68 0 0 95 0 94 58 3 c31 2 56 6 55 11 -2 4 -3
106 -3 227 l0 220 -135 0 -135 0 0 124 c0 109 2 124 18 129 9 3 87 30 172 60
l155 55 28 -24 c32 -27 74 -31 103 -10 15 11 19 26 19 70 0 51 -3 59 -37 92
-68 69 -142 39 -137 -54 l3 -45 -64 -24 c-36 -13 -109 -39 -162 -58 l-98 -34
0 173 0 173 43 7 c145 23 275 162 285 308 4 52 6 58 24 52 56 -17 274 -51 282
-43 19 17 -9 27 -134 48 -69 12 -135 24 -146 26 -16 4 -25 17 -33 52 -22 88
-99 181 -186 225 -34 18 -125 39 -158 37 -12 -1 -41 -5 -64 -10z m188 -48 c68
-26 132 -87 165 -156 22 -47 31 -85 19 -85 -8 0 -323 57 -457 83 -65 12 -118
25 -118 29 0 17 76 91 114 110 105 54 175 59 277 19z m-276 -190 c55 -10 165
-31 245 -45 80 -15 163 -30 185 -35 l40 -7 -2 -56 c-6 -196 -213 -333 -409
-271 -79 24 -141 77 -183 153 -33 60 -36 71 -36 150 0 90 13 130 43 130 9 0
62 -9 117 -19z m-219 -616 c13 -53 -31 -125 -76 -125 -26 0 -45 40 -36 75 16
65 99 102 112 50z m829 1 c46 -46 42 -126 -6 -126 -33 0 -79 53 -79 92 0 60
42 77 85 34z m-185 -706 l0 -200 -108 0 -109 0 -18 101 c-10 55 -22 102 -26
104 -13 9 -26 -20 -38 -88 -21 -122 -15 -117 -131 -117 l-100 0 0 200 0 200
265 0 265 0 0 -200z m67 -467 c56 -37 6 -86 -87 -86 -94 0 -143 49 -87 86 45
29 129 29 174 0z m-507 2 c90 -46 -45 -122 -143 -82 -50 22 -57 44 -23 74 21
18 39 23 82 23 30 0 68 -7 84 -15z" id="node2" class="node"></path>
</g>
<g transform="translate(0.000000,222.000000) scale(0.100000,-0.100000)" fill="#4DB1AF" stroke="none">


<path d="M617 2179 c-91 -21 -179 -96 -220 -187 -30 -67 -29 -189 2 -254 79
-166 267 -239 423 -166 66 31 128 91 160 156 19 39 23 63 23 142 0 92 -2 98
-35 154 -77 128 -214 188 -353 155z" id="node5" class="node"></path>
<path d="M2249 2116 c-71 -28 -116 -56 -152 -95 -20 -23 -37 -44 -37 -49 0 -4
53 -17 118 -29 134 -26 449 -83 457 -83 12 0 3 38 -19 85 -33 69 -97 130 -165
156 -69 27 -154 33 -202 15z" id="node6" class="node"></path>
<path d="M167 2070 c-48 -30 -91 -172 -102 -335 l-5 -90 25 70 c39 109 96 213
148 268 45 49 46 52 30 69 -23 22 -73 31 -96 18z" id="node7" class="node"></path>
<path d="M1131 2059 l-34 -20 51 -52 c58 -60 103 -139 143 -252 l28 -80 1 61
c0 143 -49 311 -102 348 -30 21 -46 20 -87 -5z" id="node8" class="node"></path>
<path d="M2028 1908 c-8 -14 -13 -57 -13 -108 0 -79 3 -90 36 -150 76 -138
232 -202 375 -153 71 24 108 48 149 98 47 58 66 105 68 173 l2 56 -40 7 c-22
5 -105 20 -185 35 -80 14 -190 35 -245 45 -127 24 -132 24 -147 -3z" id="node9" class="node"></path>
<path d="M682 1440 c-6 -14 -36 -83 -67 -155 -31 -71 -74 -170 -95 -220 -45
-107 -175 -408 -195 -450 -8 -16 -30 -68 -50 -115 -20 -47 -39 -91 -42 -97 -4
-10 91 -13 456 -13 254 0 461 3 461 7 0 8 -59 151 -90 218 -11 22 -34 76 -53
120 -96 225 -162 378 -193 447 -18 43 -34 79 -34 82 0 2 -15 37 -33 78 -18 40
-38 84 -44 98 l-11 25 -10 -25z" id="node10" class="node"></path>
<path d="M68 1303 c-40 -46 -48 -91 -22 -117 22 -23 32 -20 71 19 29 29 34 40
31 72 -3 34 -6 38 -34 41 -19 2 -36 -3 -46 -15z" id="node11" class="node"></path>
<path d="M1238 1295 c-22 -50 50 -144 91 -118 31 19 26 88 -9 123 -29 29 -68
26 -82 -5z" id="node12" class="node"></path>
<path d="M1875 1296 c-30 -31 -41 -70 -26 -102 30 -68 127 23 107 101 -8 33
-48 34 -81 1z" id="node13" class="node"></path>
<path d="M2712 1308 c-23 -23 -14 -77 17 -109 36 -36 68 -38 82 -5 29 64 -54
159 -99 114z" id="node14" class="node"></path>

<path d="M2070 590 l0 -200 100 0 c116 0 110 -5 131 117 12 68 25 97 38 88 4
-2 16 -49 26 -104 l18 -101 109 0 108 0 0 200 0 200 -265 0 -265 0 0 -200z" id="node16" class="node"></path>


<path d="M383 139 c-57 -17 -66 -65 -17 -88 33 -15 123 -14 154 2 34 17 38 52
7 71 -30 20 -103 28 -144 15z" id="node19" class="node"></path>
<path d="M863 131 c-18 -12 -33 -27 -33 -34 0 -63 188 -78 220 -17 7 13 3 23
-16 40 -35 34 -126 39 -171 11z" id="node20" class="node"></path>
<path d="M2541 143 c-37 -7 -71 -33 -71 -54 0 -31 45 -52 110 -52 131 0 152
89 25 106 -22 2 -51 3 -64 0z" id="node21" class="node"></path>
<path d="M1994 117 c-34 -30 -27 -52 23 -74 67 -28 173 1 173 47 0 28 -50 50
-114 50 -43 0 -61 -5 -82 -23z" id="node22" class="node"></path>
</g>
</svg>